<svg width="27" height="32" viewBox="0 0 27 32" fill="none" xmlns="http://www.w3.org/2000/svg">
<path d="M1.01832 25.2666V4.73333C1.01832 3.74319 1.42324 2.7936 2.144 2.09347C2.86477 1.39333 3.84234 1 4.86165 1H26V21.5333H5.02499C4.04651 21.5145 3.09554 21.8484 2.35561 22.4706C1.61569 23.0928 1.13927 23.9593 1.01832 24.9026C0.965869 25.4226 1.02636 25.9475 1.19588 26.4433C1.3654 26.9392 1.64017 27.3949 2.00243 27.7811C2.36468 28.1673 2.80635 28.4753 3.29887 28.6853C3.79139 28.8952 4.3238 29.0024 4.86165 29H26" stroke="black" stroke-width="2" stroke-linecap="round" stroke-linejoin="round"/>
<path d="M25.019 23V31" stroke="black" stroke-width="2" stroke-linecap="round" stroke-linejoin="round"/>
</svg>
