<svg width="24" height="25" viewBox="0 0 24 25" fill="none" xmlns="http://www.w3.org/2000/svg">
<path d="M22 12.5C22 18.0228 17.5228 22.5 12 22.5C6.47715 22.5 2 18.0228 2 12.5C2 6.97715 6.47715 2.5 12 2.5C17.5228 2.5 22 6.97715 22 12.5Z" stroke="#141B34" stroke-width="1.5"/>
<path d="M15 14.5C15 15.6046 14.1046 16.5 13 16.5H12C11.0681 16.5 10.6022 16.5 10.2346 16.3478C9.74458 16.1448 9.35523 15.7554 9.15224 15.2654C9 14.8978 9 14.4319 9 13.5V11.5C9 10.5681 9 10.1022 9.15224 9.73463C9.35523 9.24458 9.74458 8.85523 10.2346 8.65224C10.6022 8.5 11.0681 8.5 12 8.5H13C14.1046 8.5 15 9.39543 15 10.5" stroke="#141B34" stroke-width="1.5" stroke-linecap="round"/>
</svg>
