<svg width="29" height="26" viewBox="0 0 29 26" fill="none" xmlns="http://www.w3.org/2000/svg">
<path d="M28.4862 6.19839L24.0023 2.7695C23.8704 2.63761 23.8704 2.63761 23.7385 2.50573L20.5734 0.131881C20.4415 1.86692e-07 20.3096 0 20.1778 0H8.57225C8.44037 0 8.30849 1.86692e-07 8.17661 0.131881L0.263761 6.19839C0.131881 6.33027 0 6.46216 0 6.72592C0 6.8578 2.94776e-08 7.12156 0.131881 7.25344L13.8475 25.3211C14.1112 25.5849 14.6388 25.5849 14.9025 25.3211L28.6181 7.12156C28.75 6.98968 28.75 6.8578 28.75 6.59404C28.75 6.46216 28.6181 6.33027 28.4862 6.19839ZM7.12156 2.63761L8.57225 1.58257C8.70413 1.45069 8.83601 1.45069 8.96789 1.45069H19.7821C19.914 1.45069 20.0459 1.45069 20.1778 1.58257L21.6284 2.7695C21.7603 2.90138 21.8922 3.03326 21.8922 3.29702C21.8922 3.56078 21.7603 3.69266 21.6284 3.82454L19.6502 5.14335C19.5183 5.27523 19.3865 5.27523 19.2546 5.27523L9.89106 5.14335C9.75918 5.14335 9.62729 5.14335 9.49541 5.01147L7.25344 3.69266C6.98968 3.56078 6.98968 3.4289 6.8578 3.16514C6.8578 2.90138 6.98968 2.7695 7.12156 2.63761ZM5.01147 10.9461C4.74771 10.9461 4.61583 10.8142 4.48395 10.6823L1.97821 7.38532C1.84633 7.25344 1.71445 7.12156 1.84633 6.8578C1.84633 6.72592 1.97821 6.59404 2.11009 6.46215L5.01147 4.22018C5.27523 4.0883 5.53899 4.0883 5.80275 4.22018L8.17661 5.67087C8.30849 5.80275 8.44037 5.93463 8.44037 6.06651C8.44037 6.19839 8.44037 6.46216 8.30849 6.59404L5.53899 10.6823C5.40711 10.8142 5.14335 10.9461 5.01147 10.9461ZM22.0241 13.7156L14.9025 23.0791C14.7706 23.211 14.6388 23.3429 14.375 23.3429C14.1112 23.3429 13.9794 23.211 13.8475 23.0791L6.72592 13.7156C6.59404 13.4518 6.59404 13.1881 6.72592 13.0562C6.8578 12.7924 7.12156 12.6605 7.25344 12.6605H21.6284C21.8922 12.6605 22.156 12.7924 22.156 13.0562C22.2878 13.1881 22.156 13.4518 22.0241 13.7156ZM22.156 10.9461C22.0241 11.2099 21.7603 11.3417 21.6284 11.3417H7.91284C7.64908 11.3417 7.38532 11.2099 7.38532 10.9461C7.38532 10.6823 7.25344 10.4186 7.38532 10.2867L9.75917 6.72592C9.89106 6.59404 10.0229 6.46215 10.2867 6.46215L19.1227 6.59404C19.3865 6.59404 19.5183 6.72592 19.6502 6.8578L22.156 10.2867C22.2878 10.4186 22.2878 10.6823 22.156 10.9461ZM26.7718 7.38532L24.6617 10.1548C24.5298 10.2867 24.3979 10.4186 24.1342 10.4186C23.8704 10.4186 23.7385 10.2867 23.6067 10.1548L20.969 6.46215C20.7053 6.19839 20.8372 5.80275 21.1009 5.53899L22.9472 4.22018C23.211 4.0883 23.4748 4.0883 23.7385 4.22018L26.6399 6.46215C26.7718 6.59404 26.9037 6.72592 26.9037 6.8578C27.0356 7.12156 26.9037 7.25344 26.7718 7.38532Z" fill="white"/>
</svg>
