<svg width="1336" height="289" viewBox="0 0 1336 289" fill="none" xmlns="http://www.w3.org/2000/svg">
<path d="M74.0395 223H39.1598L39.3841 200.682H74.0395C84.1333 200.682 92.5822 198.476 99.3861 194.064C106.265 189.653 111.424 183.335 114.863 175.111C118.377 166.886 120.134 157.091 120.134 145.726V136.866C120.134 128.044 119.125 120.23 117.106 113.426C115.162 106.622 112.246 100.903 108.358 96.2668C104.545 91.6312 99.8347 88.117 94.2271 85.7244C88.6942 83.3318 82.3015 82.1355 75.0489 82.1355H38.4869V59.7049H75.0489C85.8904 59.7049 95.7972 61.5367 104.769 65.2004C113.742 68.7893 121.48 73.9857 127.985 80.7897C134.565 87.5937 139.612 95.7435 143.126 105.239C146.64 114.735 148.397 125.352 148.397 137.091V145.726C148.397 157.465 146.64 168.082 143.126 177.578C139.612 187.074 134.565 195.223 127.985 202.027C121.406 208.757 113.555 213.953 104.433 217.617C95.386 221.206 85.2548 223 74.0395 223ZM54.7491 59.7049V223H26.5987V59.7049H54.7491ZM206.717 59.7049V223H178.566V59.7049H206.717ZM269.859 59.7049V223H241.709V59.7049H269.859ZM336.478 131.146V153.465H262.681V131.146H336.478ZM345.787 59.7049V82.1355H262.681V59.7049H345.787ZM396.368 59.7049V223H368.217V59.7049H396.368ZM462.987 131.146V153.465H389.19V131.146H462.987ZM472.296 59.7049V82.1355H389.19V59.7049H472.296ZM601.608 200.682V223H514.914V200.682H601.608ZM522.877 59.7049V223H494.726V59.7049H522.877ZM590.281 127.894V149.876H514.914V127.894H590.281ZM601.048 59.7049V82.1355H514.914V59.7049H601.048ZM624.6 59.7049H682.359C694.77 59.7049 705.35 61.5741 714.098 65.3125C722.846 69.051 729.538 74.5839 734.173 81.9112C738.884 89.1638 741.239 98.1361 741.239 108.828C741.239 116.978 739.744 124.156 736.753 130.361C733.762 136.567 729.538 141.801 724.08 146.063C718.622 150.25 712.117 153.502 704.565 155.82L696.041 159.97H644.114L643.89 137.651H682.807C689.537 137.651 695.144 136.455 699.63 134.062C704.116 131.67 707.481 128.417 709.724 124.305C712.042 120.118 713.201 115.408 713.201 110.174C713.201 104.491 712.079 99.5567 709.836 95.3696C707.668 91.1078 704.303 87.8553 699.742 85.6123C695.182 83.2944 689.387 82.1355 682.359 82.1355H652.75V223H624.6V59.7049ZM717.799 223L679.443 149.652L708.939 149.54L747.856 221.542V223H717.799ZM876.159 200.682V223H789.465V200.682H876.159ZM797.428 59.7049V223H769.277V59.7049H797.428ZM864.832 127.894V149.876H789.465V127.894H864.832ZM875.599 59.7049V82.1355H789.465V59.7049H875.599ZM1028.69 59.7049V223H1000.54L927.301 106.024V223H899.151V59.7049H927.301L1000.76 176.905V59.7049H1028.69ZM1158.67 169.839H1186.71C1185.81 180.531 1182.82 190.064 1177.74 198.438C1172.66 206.738 1165.51 213.28 1156.32 218.065C1147.12 222.85 1135.94 225.243 1122.78 225.243C1112.69 225.243 1103.61 223.449 1095.53 219.86C1087.46 216.196 1080.54 211.037 1074.78 204.383C1069.03 197.653 1064.61 189.541 1061.55 180.045C1058.56 170.55 1057.06 159.932 1057.06 148.194V134.623C1057.06 122.885 1058.6 112.267 1061.66 102.772C1064.8 93.2761 1069.29 85.1637 1075.12 78.4345C1080.95 71.6305 1087.94 66.4341 1096.09 62.8452C1104.32 59.2563 1113.55 57.4618 1123.79 57.4618C1136.8 57.4618 1147.79 59.8544 1156.77 64.6396C1165.74 69.4248 1172.69 76.0419 1177.63 84.4907C1182.64 92.9396 1185.7 102.622 1186.82 113.538H1158.79C1158.04 106.51 1156.39 100.491 1153.85 95.4818C1151.38 90.4723 1147.72 86.659 1142.86 84.0421C1138 81.3505 1131.64 80.0046 1123.79 80.0046C1117.36 80.0046 1111.76 81.2009 1106.97 83.5935C1102.19 85.9861 1098.19 89.5003 1094.97 94.1359C1091.76 98.7716 1089.33 104.491 1087.68 111.295C1086.11 118.025 1085.33 125.726 1085.33 134.399V148.194C1085.33 156.418 1086.04 163.895 1087.46 170.624C1088.95 177.279 1091.19 182.999 1094.19 187.784C1097.25 192.569 1101.14 196.27 1105.85 198.887C1110.56 201.504 1116.2 202.812 1122.78 202.812C1130.78 202.812 1137.25 201.541 1142.19 198.999C1147.2 196.457 1150.97 192.756 1153.51 187.896C1156.13 182.961 1157.85 176.942 1158.67 169.839ZM1319.16 200.682V223H1232.47V200.682H1319.16ZM1240.43 59.7049V223H1212.28V59.7049H1240.43ZM1307.84 127.894V149.876H1232.47V127.894H1307.84ZM1318.6 59.7049V82.1355H1232.47V59.7049H1318.6Z" fill="url(#paint0_linear_1_416)"/>
<defs>
<linearGradient id="paint0_linear_1_416" x1="10" y1="144.5" x2="1326" y2="144.5" gradientUnits="userSpaceOnUse">
<stop offset="0.277941" stop-color="#51AAEA"/>
<stop offset="0.784443" stop-color="#986BDF"/>
</linearGradient>
</defs>
</svg>
