<svg width="29" height="29" viewBox="0 0 29 29" fill="none" xmlns="http://www.w3.org/2000/svg">
<rect width="29" height="29" fill="white"/>
<path fill-rule="evenodd" clip-rule="evenodd" d="M7.46972 12.4859C6.28826 12.4859 6.04169 12.7178 6.04169 13.8285V15.8424C6.04169 16.9532 6.28826 17.185 7.46972 17.185H10.3258V25.2406C10.3258 26.3513 10.5724 26.5832 11.7538 26.5832H14.6099C15.7913 26.5832 16.0379 26.3513 16.0379 25.2406V17.185H19.2448C20.1409 17.185 20.3717 17.0213 20.6179 16.2113L21.2299 14.1974C21.6516 12.8098 21.3918 12.4859 19.8568 12.4859H16.0379V9.12947C16.0379 8.38797 16.6772 7.78687 17.4659 7.78687H21.5303C22.7118 7.78687 22.9584 7.55505 22.9584 6.44428V3.7591C22.9584 2.64832 22.7118 2.4165 21.5303 2.4165H17.4659C13.5225 2.4165 10.3258 5.422 10.3258 9.12947V12.4859H7.46972Z" fill="black" stroke="#141B34" stroke-width="1.8125" stroke-linejoin="round"/>
</svg>
