<svg width="30" height="29" viewBox="0 0 30 29" fill="none" xmlns="http://www.w3.org/2000/svg">
<path d="M3.64584 14.5002C3.64584 9.08883 3.64584 6.38317 5.32693 4.70208C7.00801 3.021 9.71368 3.021 15.125 3.021C20.5363 3.021 23.242 3.021 24.9231 4.70208C26.6042 6.38317 26.6042 9.08883 26.6042 14.5002C26.6042 19.9115 26.6042 22.6172 24.9231 24.2982C23.242 25.9793 20.5363 25.9793 15.125 25.9793C9.71368 25.9793 7.00801 25.9793 5.32693 24.2982C3.64584 22.6172 3.64584 19.9115 3.64584 14.5002Z" stroke="#141B34" stroke-width="3.625" stroke-linejoin="round"/>
<path d="M20.5625 14.5001C20.5625 17.5032 18.128 19.9376 15.125 19.9376C12.122 19.9376 9.6875 17.5032 9.6875 14.5001C9.6875 11.4971 12.122 9.06262 15.125 9.06262C18.128 9.06262 20.5625 11.4971 20.5625 14.5001Z" stroke="#141B34" stroke-width="2.41667"/>
<path d="M21.7803 7.85425L21.7694 7.85425" stroke="#141B34" stroke-width="3.02083" stroke-linecap="round" stroke-linejoin="round"/>
</svg>
