<svg width="1294" height="169" viewBox="0 0 1294 169" fill="none" xmlns="http://www.w3.org/2000/svg">
<path d="M48.0395 166H13.1598L13.3841 143.682H48.0395C58.1333 143.682 66.5822 141.476 73.3861 137.064C80.2649 132.653 85.4239 126.335 88.8633 118.111C92.3774 109.886 94.1345 100.091 94.1345 88.7264V79.8663C94.1345 71.0436 93.1251 63.2302 91.1063 56.4263C89.1624 49.6223 86.2464 43.9025 82.3584 39.2668C78.5452 34.6312 73.8347 31.117 68.2271 28.7244C62.6942 26.3318 56.3015 25.1355 49.0489 25.1355H12.4869V2.70488H49.0489C59.8904 2.70488 69.7972 4.53672 78.7695 8.20039C87.7417 11.7893 95.4803 16.9857 101.985 23.7897C108.565 30.5937 113.612 38.7435 117.126 48.2391C120.64 57.7347 122.397 68.3519 122.397 80.0906V88.7264C122.397 100.465 120.64 111.082 117.126 120.578C113.612 130.074 108.565 138.223 101.985 145.027C95.4056 151.757 87.5548 156.953 78.433 160.617C69.386 164.206 59.2548 166 48.0395 166ZM28.7491 2.70488V166H0.598679V2.70488H28.7491ZM180.717 2.70488V166H152.566V2.70488H180.717ZM243.859 2.70488V166H215.709V2.70488H243.859ZM310.478 74.1465V96.465H236.681V74.1465H310.478ZM319.787 2.70488V25.1355H236.681V2.70488H319.787ZM370.368 2.70488V166H342.217V2.70488H370.368ZM436.987 74.1465V96.465H363.19V74.1465H436.987ZM446.296 2.70488V25.1355H363.19V2.70488H446.296ZM575.608 143.682V166H488.914V143.682H575.608ZM496.877 2.70488V166H468.726V2.70488H496.877ZM564.281 70.8941V92.8761H488.914V70.8941H564.281ZM575.048 2.70488V25.1355H488.914V2.70488H575.048ZM598.6 2.70488H656.359C668.77 2.70488 679.35 4.5741 688.098 8.31255C696.846 12.051 703.538 17.5839 708.173 24.9112C712.884 32.1638 715.239 41.1361 715.239 51.828C715.239 59.9778 713.744 67.1556 710.753 73.3614C707.762 79.5672 703.538 84.8011 698.08 89.0629C692.622 93.2499 686.117 96.5024 678.565 98.8202L670.041 102.97H618.114L617.89 80.6514H656.807C663.537 80.6514 669.144 79.4551 673.63 77.0625C678.116 74.6699 681.481 71.4174 683.724 67.3051C686.042 63.1181 687.201 58.4077 687.201 53.1738C687.201 47.4914 686.079 42.5567 683.836 38.3696C681.668 34.1078 678.303 30.8553 673.742 28.6123C669.182 26.2944 663.387 25.1355 656.359 25.1355H626.75V166H598.6V2.70488ZM691.799 166L653.443 92.6518L682.939 92.5396L721.856 164.542V166H691.799ZM850.159 143.682V166H763.465V143.682H850.159ZM771.428 2.70488V166H743.277V2.70488H771.428ZM838.832 70.8941V92.8761H763.465V70.8941H838.832ZM849.599 2.70488V25.1355H763.465V2.70488H849.599ZM1002.69 2.70488V166H974.537L901.301 49.0242V166H873.151V2.70488H901.301L974.762 119.905V2.70488H1002.69ZM1132.67 112.839H1160.71C1159.81 123.531 1156.82 133.064 1151.74 141.438C1146.66 149.738 1139.51 156.28 1130.32 161.065C1121.12 165.85 1109.94 168.243 1096.78 168.243C1086.69 168.243 1077.61 166.449 1069.53 162.86C1061.46 159.196 1054.54 154.037 1048.78 147.383C1043.03 140.653 1038.61 132.541 1035.55 123.045C1032.56 113.55 1031.06 102.932 1031.06 91.1938V77.6232C1031.06 65.8845 1032.6 55.2674 1035.66 45.7717C1038.8 36.2761 1043.29 28.1637 1049.12 21.4345C1054.95 14.6305 1061.94 9.43408 1070.09 5.84517C1078.32 2.25627 1087.55 0.461818 1097.79 0.461818C1110.8 0.461818 1121.79 2.85442 1130.77 7.63963C1139.74 12.4248 1146.69 19.0419 1151.63 27.4907C1156.64 35.9396 1159.7 45.6222 1160.82 56.5384H1132.79C1132.04 49.5102 1130.39 43.4913 1127.85 38.4818C1125.38 33.4723 1121.72 29.659 1116.86 27.0421C1112 24.3505 1105.64 23.0046 1097.79 23.0046C1091.36 23.0046 1085.76 24.2009 1080.97 26.5935C1076.19 28.9861 1072.19 32.5003 1068.97 37.1359C1065.76 41.7716 1063.33 47.4914 1061.68 54.2954C1060.11 61.0246 1059.33 68.7258 1059.33 77.3989V91.1938C1059.33 99.4184 1060.04 106.895 1061.46 113.624C1062.95 120.279 1065.19 125.999 1068.19 130.784C1071.25 135.569 1075.14 139.27 1079.85 141.887C1084.56 144.504 1090.2 145.812 1096.78 145.812C1104.78 145.812 1111.25 144.541 1116.19 141.999C1121.2 139.457 1124.97 135.756 1127.51 130.896C1130.13 125.961 1131.85 119.942 1132.67 112.839ZM1293.16 143.682V166H1206.47V143.682H1293.16ZM1214.43 2.70488V166H1186.28V2.70488H1214.43ZM1281.84 70.8941V92.8761H1206.47V70.8941H1281.84ZM1292.6 2.70488V25.1355H1206.47V2.70488H1292.6Z" fill="url(#paint0_linear_1_429)" fill-opacity="0.3"/>
<defs>
<linearGradient id="paint0_linear_1_429" x1="-16" y1="87.5" x2="1300" y2="87.5" gradientUnits="userSpaceOnUse">
<stop offset="0.277941" stop-color="#51AAEA"/>
<stop offset="0.784443" stop-color="#986BDF"/>
</linearGradient>
</defs>
</svg>
