<svg width="30" height="29" viewBox="0 0 30 29" fill="none" xmlns="http://www.w3.org/2000/svg">
<path d="M5.85418 11.4792H5.25001C4.11078 11.4792 3.54117 11.4792 3.18726 11.8332C2.83334 12.1871 2.83334 12.7567 2.83334 13.8959V24.1667C2.83334 25.306 2.83334 25.8756 3.18726 26.2295C3.54117 26.5834 4.11078 26.5834 5.25001 26.5834H5.85418C6.9934 26.5834 7.56302 26.5834 7.91693 26.2295C8.27084 25.8756 8.27084 25.306 8.27084 24.1667V13.8959C8.27084 12.7567 8.27084 12.1871 7.91693 11.8332C7.56302 11.4792 6.9934 11.4792 5.85418 11.4792Z" fill="black" stroke="#141B34" stroke-width="1.8125"/>
<path d="M8.27084 5.13538C8.27084 6.6369 7.05362 7.85413 5.55209 7.85413C4.05057 7.85413 2.83334 6.6369 2.83334 5.13538C2.83334 3.63385 4.05057 2.41663 5.55209 2.41663C7.05362 2.41663 8.27084 3.63385 8.27084 5.13538Z" fill="black" stroke="#141B34" stroke-width="1.8125"/>
<path d="M15.3107 11.4792H14.3125C13.1733 11.4792 12.6037 11.4792 12.2498 11.8332C11.8958 12.1871 11.8958 12.7567 11.8958 13.8959V24.1667C11.8958 25.306 11.8958 25.8756 12.2498 26.2295C12.6037 26.5834 13.1733 26.5834 14.3125 26.5834H14.9167C16.0559 26.5834 16.6255 26.5834 16.9794 26.2295C17.3334 25.8756 17.3334 25.306 17.3334 24.1668L17.3334 19.9377C17.3334 17.9357 17.9715 16.3127 19.8562 16.3127C20.7985 16.3127 21.5625 17.1242 21.5625 18.1252V23.5627C21.5625 24.702 21.5625 25.2716 21.9164 25.6255C22.2703 25.9794 22.8399 25.9794 23.9791 25.9794H24.5818C25.7208 25.9794 26.2903 25.9794 26.6442 25.6256C26.9981 25.2718 26.9982 24.7023 26.9985 23.5633L27.0001 16.917C27.0001 13.914 24.144 11.4795 21.3169 11.4795C19.7076 11.4795 18.2718 12.2684 17.3334 13.5019C17.3334 12.7407 17.3334 12.36 17.168 12.0774C17.0633 11.8984 16.9142 11.7493 16.7352 11.6446C16.4526 11.4792 16.0719 11.4792 15.3107 11.4792Z" fill="black" stroke="#141B34" stroke-width="1.8125" stroke-linejoin="round"/>
</svg>
