<svg width="28" height="28" viewBox="0 0 28 28" fill="none" xmlns="http://www.w3.org/2000/svg">
<rect width="28" height="28" fill="#F2F2F2"/>
<path d="M2.33331 21C2.33331 19.2029 2.33331 18.3043 2.73783 17.6442C2.96418 17.2748 3.27473 16.9642 3.6441 16.7379C4.30421 16.3334 5.2028 16.3334 6.99998 16.3334C8.79716 16.3334 9.69575 16.3334 10.3559 16.7379C10.7252 16.9642 11.0358 17.2748 11.2621 17.6442C11.6666 18.3043 11.6666 19.2029 11.6666 21C11.6666 22.7972 11.6666 23.6958 11.2621 24.3559C11.0358 24.7253 10.7252 25.0358 10.3559 25.2622C9.69575 25.6667 8.79716 25.6667 6.99998 25.6667C5.2028 25.6667 4.30421 25.6667 3.6441 25.2622C3.27473 25.0358 2.96418 24.7253 2.73783 24.3559C2.33331 23.6958 2.33331 22.7972 2.33331 21Z" stroke="#141B34" stroke-width="1.75"/>
<path d="M16.3333 21C16.3333 19.2029 16.3333 18.3043 16.7378 17.6442C16.9642 17.2748 17.2747 16.9642 17.6441 16.7379C18.3042 16.3334 19.2028 16.3334 21 16.3334C22.7972 16.3334 23.6957 16.3334 24.3559 16.7379C24.7252 16.9642 25.0358 17.2748 25.2621 17.6442C25.6666 18.3043 25.6666 19.2029 25.6666 21C25.6666 22.7972 25.6666 23.6958 25.2621 24.3559C25.0358 24.7253 24.7252 25.0358 24.3559 25.2622C23.6957 25.6667 22.7972 25.6667 21 25.6667C19.2028 25.6667 18.3042 25.6667 17.6441 25.2622C17.2747 25.0358 16.9642 24.7253 16.7378 24.3559C16.3333 23.6958 16.3333 22.7972 16.3333 21Z" stroke="#141B34" stroke-width="1.75"/>
<path d="M2.33331 7.00004C2.33331 5.20286 2.33331 4.30427 2.73783 3.64416C2.96418 3.27479 3.27473 2.96424 3.6441 2.73789C4.30421 2.33337 5.2028 2.33337 6.99998 2.33337C8.79716 2.33337 9.69575 2.33337 10.3559 2.73789C10.7252 2.96424 11.0358 3.27479 11.2621 3.64416C11.6666 4.30427 11.6666 5.20286 11.6666 7.00004C11.6666 8.79722 11.6666 9.69581 11.2621 10.3559C11.0358 10.7253 10.7252 11.0358 10.3559 11.2622C9.69575 11.6667 8.79716 11.6667 6.99998 11.6667C5.2028 11.6667 4.30421 11.6667 3.6441 11.2622C3.27473 11.0358 2.96418 10.7253 2.73783 10.3559C2.33331 9.69581 2.33331 8.79722 2.33331 7.00004Z" stroke="#141B34" stroke-width="1.75"/>
<path d="M16.3333 7.00004C16.3333 5.20286 16.3333 4.30427 16.7378 3.64416C16.9642 3.27479 17.2747 2.96424 17.6441 2.73789C18.3042 2.33337 19.2028 2.33337 21 2.33337C22.7972 2.33337 23.6957 2.33337 24.3559 2.73789C24.7252 2.96424 25.0358 3.27479 25.2621 3.64416C25.6666 4.30427 25.6666 5.20286 25.6666 7.00004C25.6666 8.79722 25.6666 9.69581 25.2621 10.3559C25.0358 10.7253 24.7252 11.0358 24.3559 11.2622C23.6957 11.6667 22.7972 11.6667 21 11.6667C19.2028 11.6667 18.3042 11.6667 17.6441 11.2622C17.2747 11.0358 16.9642 10.7253 16.7378 10.3559C16.3333 9.69581 16.3333 8.79722 16.3333 7.00004Z" stroke="#141B34" stroke-width="1.75"/>
</svg>
