<svg width="23" height="18" viewBox="0 0 23 18" fill="none" xmlns="http://www.w3.org/2000/svg">
<path d="M21 9.00001C21 8.88684 20.9569 8.79425 20.8707 8.71194L13.5901 1.71605C13.4287 1.54115 13.3101 1.5 13.1917 1.5C12.9548 1.5 12.7717 1.6749 12.7717 1.89095C12.7717 2.00411 12.804 2.107 12.8902 2.17901L17.1874 6.29425L19.7615 8.67079L17.4028 8.60906H1.40926C1.18309 8.60906 1 8.77367 1 9.00001C1 9.22635 1.18309 9.39095 1.40926 9.39095H17.4028L19.7615 9.33951L17.1874 11.7057L12.8902 15.821C12.8147 15.893 12.7717 16.0062 12.7717 16.1194C12.7717 16.3251 12.9548 16.5 13.1917 16.5C13.3101 16.5 13.4071 16.4589 13.4933 16.3765L20.8707 9.28808C20.9569 9.20577 21 9.11318 21 9.00001Z" fill="white" stroke="black" stroke-width="2"/>
</svg>
